<svg width="24" height="25" viewBox="0 0 24 25" fill="none" xmlns="http://www.w3.org/2000/svg">
<path d="M4 15.9434C2.89543 15.9434 2 15.048 2 13.9434C2 12.8388 2.89543 11.9434 4 11.9434" stroke="#333333" stroke-width="1.5" stroke-linecap="round" stroke-linejoin="round"/>
<path d="M20 15.9434C21.1046 15.9434 22 15.048 22 13.9434C22 12.8388 21.1046 11.9434 20 11.9434" stroke="#333333" stroke-width="1.5" stroke-linecap="round" stroke-linejoin="round"/>
<path d="M7 7.44336V4.44336" stroke="#333333" stroke-width="1.5" stroke-linejoin="round"/>
<path d="M17 7.44336V4.44336" stroke="#333333" stroke-width="1.5" stroke-linejoin="round"/>
<path d="M7 4.44336C7.55228 4.44336 8 3.99564 8 3.44336C8 2.89107 7.55228 2.44336 7 2.44336C6.44772 2.44336 6 2.89107 6 3.44336C6 3.99564 6.44772 4.44336 7 4.44336Z" stroke="#333333" stroke-width="1.5" stroke-linejoin="round"/>
<path d="M17 4.44336C17.5523 4.44336 18 3.99564 18 3.44336C18 2.89107 17.5523 2.44336 17 2.44336C16.4477 2.44336 16 2.89107 16 3.44336C16 3.99564 16.4477 4.44336 17 4.44336Z" stroke="#333333" stroke-width="1.5" stroke-linejoin="round"/>
<path d="M13.5 7.44336H10.5C7.67157 7.44336 6.25736 7.44336 5.37868 8.35234C4.5 9.26132 4.5 10.7243 4.5 13.6503C4.5 16.5763 4.5 18.0392 5.37868 18.9482C6.25736 19.8572 7.67157 19.8572 10.5 19.8572H11.5253C12.3169 19.8572 12.5962 20.0207 13.1417 20.6147C13.745 21.2717 14.6791 22.1484 15.5242 22.3525C16.7254 22.6428 16.8599 22.2413 16.5919 21.0965C16.5156 20.7704 16.3252 20.249 16.526 19.9452C16.6385 19.775 16.8259 19.7332 17.2008 19.6495C17.7922 19.5174 18.2798 19.3015 18.6213 18.9482C19.5 18.0392 19.5 16.5763 19.5 13.6503C19.5 10.7243 19.5 9.26132 18.6213 8.35234C17.7426 7.44336 16.3284 7.44336 13.5 7.44336Z" stroke="#333333" stroke-width="1.5" stroke-linejoin="round"/>
<path d="M9.5 15.4434C10.0701 16.0506 10.9777 16.4434 12 16.4434C13.0223 16.4434 13.9299 16.0506 14.5 15.4434" stroke="#333333" stroke-width="1.5" stroke-linecap="round" stroke-linejoin="round"/>
<path d="M9.00896 11.4434H9" stroke="#333333" stroke-width="2" stroke-linecap="round" stroke-linejoin="round"/>
<path d="M15.009 11.4434H15" stroke="#333333" stroke-width="2" stroke-linecap="round" stroke-linejoin="round"/>
</svg>
