<svg width="24" height="24" viewBox="0 0 24 24" fill="none" xmlns="http://www.w3.org/2000/svg">
<path d="M10.3769 8.25493C9.9222 8.34346 9.43052 8.41763 8.89804 8.478C8.08664 8.56839 7.20455 8.62193 6.26997 8.63873C6.06196 8.64244 5.85233 8.64499 5.63934 8.6451C5.4632 8.64499 5.29853 8.64371 5.1451 8.64151C4.42536 8.63143 3.97424 8.60281 3.96902 8.60258C3.3326 8.56306 2.84567 8.01216 2.88541 7.37446C2.92319 6.76492 3.43098 6.28749 4.04098 6.28749C4.0652 6.28749 4.08954 6.28819 4.11376 6.28958L4.21562 6.29491C4.28526 6.29827 4.3899 6.30314 4.52421 6.308C4.71669 6.31496 5.00373 6.32272 5.35566 6.32562C4.91635 5.80635 4.31551 5.49996 3.72521 5.64053C2.73349 5.87669 1.70748 7.01372 1.97041 8.78856C2.34587 11.2271 2.89584 12.656 4.34668 14.8035C4.69583 15.244 5.04858 15.5166 5.39668 15.6707L4.92562 19.1029L1.13502 21.2977C0.442747 21.6986 0.206464 22.5848 0.607298 23.2771C0.702569 23.4418 0.829356 23.5861 0.980412 23.7017C1.13147 23.8173 1.30383 23.9021 1.48765 23.9511C1.67148 24.0001 1.86315 24.0124 2.05173 23.9873C2.2403 23.9622 2.42208 23.9001 2.58667 23.8047L6.99017 21.2553C7.18073 21.1445 7.3436 20.9917 7.46648 20.8087C7.58936 20.6257 7.66903 20.4171 7.69948 20.1987L8.20507 16.5149C8.68434 16.8758 9.14295 17.2634 9.57873 17.6759C10.8885 18.9145 12.338 20.6917 13.3948 23.1266C13.7135 23.8605 14.5665 24.1971 15.3003 23.8787C16.0341 23.5602 16.371 22.7071 16.0526 21.9732C14.6139 18.6589 12.5477 16.3724 10.8402 14.9163C9.5953 13.855 8.53846 13.2283 8.02152 12.9496C7.22842 11.7303 6.72411 10.1944 6.33451 8.86064C6.75482 8.91441 7.21174 8.9486 7.6996 8.94941H7.70528C8.73215 8.95031 9.75315 8.79451 10.733 8.48739C10.6507 8.47417 10.5726 8.44139 10.5056 8.39179C10.4552 8.35385 10.4117 8.30756 10.3769 8.25493ZM11.3911 8.0161C11.3728 8.13789 11.3128 8.24578 11.219 8.32133C11.5239 8.20807 11.8232 8.08015 12.1157 7.93799C12.2573 7.86933 12.379 7.76562 12.4692 7.6367C12.4427 7.65055 12.4157 7.66338 12.3883 7.67518C12.0827 7.80172 11.7507 7.91493 11.3911 8.0161ZM13.0984 6.53316C15.3194 5.33576 19.0432 3.42174 22.0527 1.36172L22.0569 1.3594L22.1532 1.29937C22.2759 1.22289 22.3051 1.04768 22.2182 0.908155L21.7458 0.150058C21.6588 0.0104203 21.4889 -0.0406835 21.3661 0.0356824L21.2697 0.0957091C21.2683 0.0966361 21.2672 0.0976791 21.266 0.0984902C18.1355 1.86603 14.8264 4.31959 12.7654 5.79303C12.8706 5.89829 12.9544 6.02291 13.0123 6.16002C13.0624 6.28066 13.0902 6.4065 13.0984 6.53316ZM10.9391 8.227L11.0503 8.15782C11.0788 8.14009 11.1005 8.11576 11.1187 8.0891C10.9635 8.12862 10.8037 8.16628 10.6385 8.20162C10.728 8.27069 10.8466 8.2846 10.9391 8.227Z" fill="#FFD700"/>
<path d="M5.53163 6.55858C5.19291 6.55758 4.85422 6.5512 4.5157 6.53946C4.41161 6.53576 4.30754 6.5314 4.20351 6.52636C4.13224 6.52277 4.09945 6.5208 4.09933 6.5208C3.97782 6.51326 3.85601 6.52973 3.74086 6.56927C3.62571 6.60881 3.51948 6.67065 3.42823 6.75124C3.33698 6.83184 3.26249 6.92962 3.20903 7.03901C3.15558 7.14839 3.12419 7.26724 3.11666 7.38875C3.10763 7.53488 3.13353 7.68106 3.19221 7.8152C3.26018 7.97196 3.37015 8.10688 3.50999 8.20507C3.64983 8.30325 3.81408 8.36086 3.98461 8.37154V8.37131C3.99006 8.37166 4.08867 8.3778 4.26215 8.38522C4.90898 8.41177 5.55646 8.41942 6.20374 8.40816C6.99545 8.3953 7.92389 8.35335 8.87192 8.24755C9.32965 8.19575 9.79063 8.12993 10.2438 8.04476C10.3251 8.02946 10.4058 8.01254 10.4865 7.99597C10.7216 7.94753 10.9536 7.89342 11.1818 7.83246C11.2828 7.80546 11.384 7.77846 11.4833 7.7488C11.7598 7.66676 12.032 7.5708 12.2989 7.46129C12.4251 7.40861 12.538 7.32849 12.6294 7.22675C12.7011 7.14785 12.7588 7.05718 12.7997 6.95871C12.839 6.86369 12.8613 6.76195 12.8673 6.65812C12.8754 6.5225 12.8534 6.38678 12.8028 6.26067C12.7523 6.13457 12.6744 6.02122 12.5749 5.92876C12.4449 5.8068 12.2824 5.72503 12.107 5.69328C11.9316 5.66154 11.7507 5.68118 11.5862 5.74984C10.8252 6.06956 9.7496 6.28614 8.66646 6.40503C7.58157 6.52636 6.48441 6.55939 5.63952 6.55904L5.53163 6.55858ZM1.68888 5.01376C2.97911 5.65273 4.5427 5.12477 5.1819 3.83466C5.46647 3.26162 5.52948 2.60369 5.35885 1.98705C5.01306 2.03653 4.64166 2.08056 4.25369 2.11672C3.28561 2.20676 2.407 2.23017 1.77718 2.19482C2.36088 2.14673 3.08722 2.04383 3.86896 1.89006C4.31951 1.802 4.76718 1.69986 5.21133 1.58378C5.87568 1.40903 6.41859 1.22629 6.75696 1.06463C7.0148 0.941449 7.15455 0.830434 7.13763 0.744797C7.09406 0.524043 6.02807 0.540382 4.61037 0.759167C4.42866 0.592018 4.22414 0.45152 4.00292 0.341877C2.71269 -0.296978 1.14876 0.230863 0.50967 1.52097C-0.129301 2.81085 0.39854 4.37502 1.68888 5.01376Z" fill="#FFD700"/>
<path d="M22.6614 5.71347C23.2694 5.71347 23.7623 5.22059 23.7623 4.61259C23.7623 4.0046 23.2694 3.51172 22.6614 3.51172C22.0534 3.51172 21.5605 4.0046 21.5605 4.61259C21.5605 5.22059 22.0534 5.71347 22.6614 5.71347Z" fill="#FFD700"/>
</svg>
