<svg width="37" height="36" viewBox="0 0 37 36" fill="none" xmlns="http://www.w3.org/2000/svg">
<path fill-rule="evenodd" clip-rule="evenodd" d="M25.4979 3.0155C27.6557 2.88064 29.7835 3.62987 31.3869 5.09835C32.8554 6.70169 33.6046 8.82949 33.4847 11.0022V24.9978C33.6196 27.1705 32.8554 29.2983 31.4019 30.9017C29.7985 32.3701 27.6557 33.1194 25.4979 32.9845H11.5023C9.32953 33.1194 7.20172 32.3701 5.59836 30.9017C4.12987 29.2983 3.38064 27.1705 3.5155 24.9978V11.0022C3.38064 8.82949 4.12987 6.70169 5.59836 5.09835C7.20172 3.62987 9.32953 2.88064 11.5023 3.0155H25.4979ZM16.9713 25.2677L27.056 15.1532C27.9701 14.2242 27.9701 12.7257 27.056 11.8117L25.108 9.86369C24.1789 8.93465 22.6805 8.93465 21.7514 9.86369L20.7475 10.8826C20.5976 11.0325 20.5976 11.2872 20.7475 11.4371C20.7475 11.4371 23.13 13.8046 23.175 13.8645C23.3398 14.0444 23.4447 14.2841 23.4447 14.5538C23.4447 15.0933 23.0101 15.5428 22.4557 15.5428C22.201 15.5428 21.9612 15.4379 21.7964 15.2731L19.294 12.7857C19.1741 12.6658 18.9643 12.6658 18.8444 12.7857L11.6968 19.9333C11.2023 20.4278 10.9176 21.0871 10.9026 21.7913L10.8127 25.3427C10.8127 25.5375 10.8726 25.7173 11.0075 25.8521C11.1423 25.987 11.3221 26.0619 11.5169 26.0619H15.0383C15.7576 26.0619 16.4469 25.7772 16.9713 25.2677Z" fill="#FFD700"/>
</svg>
